<?xml version="1.0" standalone="no"?>
<!DOCTYPE svg PUBLIC "-//W3C//DTD SVG 20010904//EN"
 "http://www.w3.org/TR/2001/REC-SVG-20010904/DTD/svg10.dtd">
<svg version="1.0" xmlns="http://www.w3.org/2000/svg"
 width="702.000000pt" height="303.000000pt" viewBox="0 0 702.000000 303.000000"
 preserveAspectRatio="xMidYMid meet">

<g transform="translate(0.000000,303.000000) scale(0.100000,-0.100000)"
fill="#000000" stroke="none">
<path d="M2520 3014 c-333 -32 -530 -77 -750 -170 -263 -110 -472 -301 -588
-536 -40 -80 -45 -86 -85 -98 -97 -29 -257 -123 -331 -196 -37 -36 -99 -124
-93 -131 2 -2 31 8 65 22 70 28 72 29 72 15 0 -22 -86 -102 -154 -145 -167
-103 -367 -166 -539 -167 l-107 -1 22 -25 c56 -59 174 -92 338 -92 63 0 130 6
165 15 81 21 206 81 351 171 67 41 124 74 128 74 3 0 6 -9 6 -19 0 -24 -69
-94 -144 -146 l-57 -39 43 -20 c54 -26 88 -88 88 -157 l0 -48 95 -45 c196 -93
353 -215 398 -310 34 -71 52 -80 146 -73 56 5 86 2 116 -9 94 -37 122 -29 159
44 31 61 48 75 126 106 57 22 61 25 33 25 -31 1 -33 3 -33 37 0 20 -10 74 -22
121 -25 93 -21 108 26 131 52 26 88 9 164 -76 38 -42 93 -106 121 -142 67 -85
141 -146 217 -180 33 -15 87 -53 121 -84 l62 -57 32 47 c51 75 69 133 69 227
-1 127 -34 181 -180 291 -173 130 -195 236 -76 364 50 54 81 115 92 180 l7 43
24 -23 c35 -33 27 -72 -41 -209 -62 -124 -71 -179 -38 -233 10 -16 62 -59 117
-95 145 -96 170 -143 170 -321 l0 -106 -42 -73 c-71 -121 -73 -161 -16 -244
33 -48 131 -123 172 -132 20 -4 46 1 80 16 97 41 201 7 325 -107 84 -79 112
-84 208 -39 61 28 94 31 160 11 43 -13 50 -13 84 5 48 24 68 24 184 0 65 -14
99 -17 111 -10 18 9 18 12 -2 62 -57 147 -136 249 -228 296 l-43 22 -71 -21
c-40 -12 -88 -31 -107 -42 l-34 -20 -23 27 c-13 14 -23 33 -23 41 0 13 -8 14
-42 9 -24 -4 -65 -16 -91 -26 -86 -34 -174 -20 -211 33 -37 52 -6 91 104 133
117 43 188 85 231 133 35 41 46 65 78 181 6 21 13 9 40 -67 30 -81 36 -91 55
-87 72 15 284 27 421 24 247 -4 330 -1 421 16 100 19 266 74 430 143 152 65
235 87 273 74 22 -8 30 -6 38 6 8 13 19 2 61 -60 60 -89 86 -110 201 -168 119
-59 136 -74 203 -174 179 -264 203 -465 68 -565 -26 -18 -31 -28 -27 -49 4
-23 -5 -37 -64 -93 -37 -36 -75 -79 -83 -94 -20 -38 -8 -52 87 -96 67 -32 79
-34 172 -34 73 0 113 5 148 18 26 10 47 21 47 24 0 3 -7 30 -16 60 -19 64 -14
91 25 135 26 30 29 42 32 116 4 69 8 86 24 98 11 8 28 12 38 9 64 -20 60 -21
53 19 -4 22 -39 86 -81 148 -90 135 -100 170 -90 338 7 113 6 120 -18 173 -20
44 -36 62 -79 90 -72 46 -104 86 -118 149 -18 79 0 151 75 308 35 74 69 157
75 183 13 60 0 143 -37 237 -33 83 -129 275 -155 311 -33 44 -18 90 50 159 91
90 221 127 340 96 116 -29 169 -86 207 -221 22 -76 66 -164 96 -192 13 -12 43
-29 67 -38 47 -19 48 -21 26 -46 -15 -17 -13 -18 23 -26 59 -13 204 -9 247 6
l40 14 -78 27 c-78 28 -179 89 -196 119 -12 22 -28 5 -32 -35 l-3 -32 -37 15
c-48 19 -93 87 -108 161 -26 135 -49 192 -96 239 -112 111 -302 139 -476 68
-83 -34 -137 -67 -177 -109 -19 -20 -38 -36 -42 -36 -5 0 -27 13 -51 28 -59
40 -110 58 -201 72 -109 18 -301 7 -452 -25 -195 -42 -275 -47 -620 -41 -608
10 -688 31 -1119 288 -128 76 -162 92 -224 104 -91 17 -354 17 -542 -2z"/>
<path d="M5187 1269 c-41 -10 -126 -50 -170 -81 -15 -11 -37 -38 -48 -61 -12
-23 -61 -82 -109 -132 -48 -49 -97 -109 -109 -132 l-21 -43 -65 0 c-61 0 -65
-1 -65 -23 0 -32 -52 -78 -135 -120 -115 -58 -113 -55 -84 -112 30 -61 93 -98
202 -120 64 -14 90 -14 154 -5 133 20 122 10 116 99 -7 90 -4 94 81 110 75 14
86 23 86 78 0 94 89 298 160 368 37 36 44 39 117 44 43 4 84 10 91 14 21 14
13 42 -20 74 -53 51 -98 62 -181 42z"/>
<path d="M2558 795 c-6 -46 -45 -134 -123 -270 -41 -71 -45 -85 -40 -123 6
-40 2 -51 -50 -137 -68 -111 -68 -130 -5 -164 77 -43 158 -35 338 31 47 17 52
22 52 49 0 42 -24 94 -70 154 -48 63 -50 83 -9 98 l31 12 -8 55 c-12 80 -6
157 15 206 l19 42 -25 6 c-13 4 -44 25 -67 46 -24 22 -46 40 -48 40 -3 0 -8
-20 -10 -45z"/>
</g>
</svg>
