<?xml version="1.0" standalone="no"?>
<!DOCTYPE svg PUBLIC "-//W3C//DTD SVG 20010904//EN"
 "http://www.w3.org/TR/2001/REC-SVG-20010904/DTD/svg10.dtd">
<svg version="1.0" xmlns="http://www.w3.org/2000/svg"
 width="703.000000pt" height="422.000000pt" viewBox="0 0 703.000000 422.000000"
 preserveAspectRatio="xMidYMid meet">

<g transform="translate(0.000000,422.000000) scale(0.100000,-0.100000)"
fill="#000000" stroke="none">
<path d="M3670 4213 c-82 -14 -195 -64 -338 -151 -99 -60 -181 -89 -277 -98
-78 -7 -154 1 -490 51 -358 53 -447 60 -740 60 -539 -1 -807 -68 -1095 -273
-234 -167 -452 -472 -588 -824 -130 -336 -127 -466 27 -1126 105 -448 115
-525 86 -661 -20 -96 -52 -171 -131 -309 -102 -177 -124 -229 -124 -289 0 -74
32 -231 87 -425 l47 -168 349 0 348 0 -80 158 c-45 87 -81 162 -81 167 1 6 54
36 118 67 121 58 221 130 258 185 l21 32 12 -72 c14 -86 77 -280 100 -309 17
-20 21 -20 566 -12 l550 9 3 28 c5 39 -48 146 -97 200 -23 24 -69 59 -103 77
-35 18 -65 34 -67 36 -2 2 29 39 70 81 129 135 231 257 247 293 27 64 53 174
59 256 l6 81 53 12 c64 15 229 94 326 157 39 25 76 43 82 41 30 -12 342 -796
391 -985 11 -43 54 -432 55 -494 0 -5 297 -8 660 -8 l660 0 0 23 c0 37 -25
119 -54 175 -37 72 -92 130 -198 208 -65 48 -88 70 -88 87 0 12 16 131 35 265
88 608 198 997 345 1212 43 63 151 170 195 192 17 9 102 30 190 48 315 62 498
116 618 184 98 54 191 73 612 121 250 29 372 49 430 70 58 21 195 181 269 313
49 86 50 139 4 178 -48 39 -153 87 -297 135 -69 23 -133 49 -142 58 -9 9 -30
50 -48 91 -18 41 -39 85 -47 98 -17 26 -168 103 -309 157 -55 21 -105 43 -111
49 -6 6 -24 47 -39 91 -36 102 -112 267 -128 277 -43 27 -121 -12 -213 -108
l-70 -74 -146 0 c-183 0 -465 16 -627 36 -157 19 -278 58 -419 136 -232 130
-305 158 -472 183 -90 14 -204 17 -260 8z"/>
</g>
</svg>
